<svg xmlns="http://www.w3.org/2000/svg" xmlns:xlink="http://www.w3.org/1999/xlink" width="158pt" height="113pt" viewBox="0.00 0.00 157.88 113.12">
<g id="graph0" class="graph" transform="scale(1 1) rotate(0) translate(4 109.12)">
<polygon fill="white" stroke="none" points="-4,4 -4,-109.12 153.88,-109.12 153.88,4 -4,4"/>
<!-- Assignment -->
<g id="node1" class="node">
<title>Assignment</title>
<g id="a_node1"><a xlink:title="→ Employee→ Project------------------------------percent_effort       ">
<polygon fill="#00ff00" fill-opacity="0.188235" stroke="#00ff00" stroke-opacity="0.188235" points="122.5,-34.56 36.75,-34.56 36.75,0 122.5,0 122.5,-34.56"/>
<text text-anchor="middle" x="79.62" y="-13.01" font-family="arial" font-size="12.00" fill="darkgreen">Assignment</text>
</a>
</g>
</g>
<!-- Employee -->
<g id="node2" class="node">
<title>Employee</title>
<g id="a_node2"><a xlink:title="employee_id          ------------------------------employee_name        ">
<polygon fill="#00ff00" fill-opacity="0.188235" stroke="#00ff00" stroke-opacity="0.188235" points="75.25,-105.12 0,-105.12 0,-70.56 75.25,-70.56 75.25,-105.12"/>
<text text-anchor="start" x="8" y="-84.56" font-family="arial" text-decoration="underline" font-size="12.00" fill="darkgreen">Employee</text>
</a>
</g>
</g>
<!-- Employee&#45;&gt;Assignment -->
<g id="edge1" class="edge">
<title>Employee-&gt;Assignment</title>
<path fill="none" stroke="#000000" stroke-width="0.75" stroke-opacity="0.250980" d="M47.79,-70.24C54.4,-59.46 62.97,-45.47 69.55,-34.72"/>
</g>
<!-- Project -->
<g id="node3" class="node">
<title>Project</title>
<g id="a_node3"><a xlink:title="project_code         ------------------------------project_title        start_date           end_date             ">
<polygon fill="#00ff00" fill-opacity="0.188235" stroke="#00ff00" stroke-opacity="0.188235" points="149.88,-105.12 93.38,-105.12 93.38,-70.56 149.88,-70.56 149.88,-105.12"/>
<text text-anchor="start" x="101.38" y="-84.56" font-family="arial" text-decoration="underline" font-size="12.00" fill="darkgreen">Project</text>
</a>
</g>
</g>
<!-- Project&#45;&gt;Assignment -->
<g id="edge2" class="edge">
<title>Project-&gt;Assignment</title>
<path fill="none" stroke="#000000" stroke-width="0.75" stroke-opacity="0.250980" d="M111.46,-70.24C104.85,-59.46 96.28,-45.47 89.7,-34.72"/>
</g>
</g>
</svg>